Coordinates
version=1
nRows=7
nColumns=33
inDegrees=yes

Units are S.I. units (second, meters, Newtons, ...)
Angles are in degrees.

endheader
time	ground_thorax_rot_x	ground_thorax_rot_y	ground_thorax_rot_z	ground_thorax_tx	ground_thorax_ty	ground_thorax_tz	clav_prot_r	clav_elev_r	scapula_abduction_r	scapula_elevation_r	scapula_upward_rot_r	scapula_winging_r	shoulder_elv_r	plane_of_elev_r	axial_rot_r	elbow_flexion_r	pro_sup_r	wrist_flex_r	wrist_dev_r	clav_prot_l	clav_elev_l	scapula_abduction_l	scapula_elevation_l	scapula_upward_rot_l	scapula_winging_l	shoulder_elv_l	plane_of_elev_l	axial_rot_l	elbow_flexion_l	pro_sup_l	wrist_flex_l	wrist_dev_l
      3.07000000	     -3.47890999	      4.65606764	     11.37352199	     -0.10921456	      1.02574023	      0.01150367	     13.25358848	    -13.65154160	     29.11503770	    -10.48319380	     11.60413222	     -6.74388594	     -7.60908383	    -61.03418475	    119.94038188	    -64.36221136	   -159.05457833	      5.62066989	      6.66631046	     18.01720727	     -7.51308468	    -25.98189360	    -10.95936614	    -28.22460422	      6.23962498	     63.39844935	     -9.60396568	      7.78684936	     45.31290871	     16.04983257	     26.07314283	     -7.12658975
      3.08000000	     -3.49321401	      4.55251940	     11.43012769	     -0.10891506	      1.02524743	      0.01102385	     13.44406800	    -13.26461167	     30.04017378	    -10.47504975	     12.61345757	     -7.30837540	     -6.66033641	    -60.26263778	    120.92365028	    -62.28333172	   -157.76139737	      5.14135847	      7.05478165	     18.45583386	     -7.64183350	    -26.71849795	    -10.59633106	    -27.75630733	      6.67032973	     62.61102480	     -8.26747512	      8.79611468	     42.71373459	     16.49920629	     26.14091454	     -7.23128821
      3.09000000	     -3.73881785	      4.56083310	     11.24794144	     -0.10853934	      1.02555811	      0.01068404	     13.70807743	    -13.54149339	     30.84063477	    -10.91978760	     13.24520301	     -7.45894032	     -5.91526727	    -59.39835383	    120.93766062	    -60.37981195	   -157.24732423	      4.74673337	      7.12454644	     18.78167255	     -8.15180057	    -27.24527412	     -9.85369706	    -27.18674367	      6.94468027	     62.71481923	     -7.50938059	      8.90554073	     40.36639630	     16.91097872	     26.10700550	     -6.98033740
      3.10000000	     -3.71121855	      4.41677948	     11.30329489	     -0.10824303	      1.02503650	      0.01026707	     13.92281990	    -13.00628205	     31.90456332	    -10.81398140	     14.38745144	     -8.15930420	     -5.32411112	    -58.65057159	    121.63727932	    -58.21248548	   -155.50924740	      4.51423581	      7.18551150	     19.28458687	     -8.29450848	    -28.09341297	     -9.51116742	    -26.78827727	      7.42357227	     61.92126148	     -6.19414248	     10.13904945	     37.70227151	     17.57360066	     25.77674690	     -7.25440850
      3.11000000	     -3.72122035	      4.34335125	     11.38832470	     -0.10843889	      1.02441600	      0.01019123	     14.48523919	    -12.35772743	     33.39336448	    -10.51922092	     15.29197629	     -9.13951893	     -5.07416432	    -57.56556505	    121.40498426	    -56.05630548	   -153.03666321	      4.51984855	      7.10732566	     19.95827959	     -8.68768931	    -29.21372141	     -9.03990362	    -26.60258597	      7.99839590	     61.66178005	     -5.19875656	     10.81306837	     35.28051436	     18.80579508	     25.28725006	     -7.88696278
      3.12000000	     -3.91929981	      4.24238744	     11.37106447	     -0.10772100	      1.02504130	      0.00979178	     14.60729478	    -12.74514133	     33.95517450	    -11.04264312	     15.89780039	     -9.11666806	     -4.60459581	    -56.95714878	    121.20047705	    -54.10877065	   -152.76848946	      4.12841953	      7.14807139	     20.15090055	     -9.25621093	    -29.50601707	     -8.30467059	    -26.12662305	      8.10389777	     61.70963386	     -4.70148412	     11.04384287	     33.02076620	     19.15277023	     25.23119541	     -7.49306879
      3.13000000	     -3.90457208	      4.12727285	     11.16334087	     -0.10735662	      1.02445013	      0.00961912	     14.95040554	    -11.96656319	     35.43359875	    -10.79295935	     17.31605315	    -10.12276459	     -4.72442264	    -56.14637254	    120.97776443	    -51.97976539	   -150.76204376	      4.27191114	      6.55296171	     20.69957982	     -9.40458299	    -30.42823039	     -7.96341627	    -25.73801878	      8.62513383	     61.24429778	     -3.40278872	     12.28076549	     30.46321285	     20.24550487	     24.21649087	     -7.88486045
